<svg width="33" height="38" viewBox="0 0 33 38" fill="none" xmlns="http://www.w3.org/2000/svg">
<path d="M29.2969 16.4062H27.5391V11.1328C27.5391 4.99512 22.5439 0 16.4062 0C10.2686 0 5.27344 4.99512 5.27344 11.1328V16.4062H3.51562C1.57471 16.4062 0 17.981 0 19.9219V33.9844C0 35.9253 1.57471 37.5 3.51562 37.5H29.2969C31.2378 37.5 32.8125 35.9253 32.8125 33.9844V19.9219C32.8125 17.981 31.2378 16.4062 29.2969 16.4062ZM21.6797 16.4062H11.1328V11.1328C11.1328 8.2251 13.4985 5.85938 16.4062 5.85938C19.314 5.85938 21.6797 8.2251 21.6797 11.1328V16.4062Z" fill="#FBFBFB"/>
</svg>
