<svg width="308" height="359" viewBox="0 0 308 359" fill="none" xmlns="http://www.w3.org/2000/svg">
<path d="M170.107 13.9999C190.607 13.9999 208.524 16.25 223.857 20.75C239.191 25.25 251.524 30 260.857 34.9999C270.191 40 275.857 43.3333 277.857 45L241.857 105.25C239.191 103.25 234.607 100.333 228.107 96.5C221.774 92.6666 214.191 89.25 205.357 86.25C196.691 83.25 187.607 81.75 178.107 81.75C165.274 81.75 154.857 84.0833 146.857 88.75C139.024 93.25 135.107 100 135.107 109C135.107 115.167 137.191 120.75 141.357 125.75C145.691 130.583 152.191 135.25 160.857 139.75C169.691 144.083 180.857 148.833 194.357 154C206.691 158.5 218.274 163.833 229.107 170C239.941 176.167 249.441 183.5 257.607 192C265.941 200.333 272.524 210 277.357 221C282.191 232 284.607 244.5 284.607 258.5C284.607 275.167 281.191 289.667 274.357 302C267.524 314.167 258.191 324.25 246.357 332.25C234.691 340.25 221.357 346.167 206.357 350C191.524 354 176.107 356 160.107 356C137.441 356 117.107 353.417 99.1074 348.25C81.2741 343.083 66.8574 337.5 55.8574 331.5C44.8574 325.5 38.2741 321.5 36.1074 319.5L73.3574 256.75C75.3574 258.25 79.1908 260.667 84.8574 264C90.6908 267.333 97.7741 270.833 106.107 274.5C114.441 278 123.274 281 132.607 283.5C142.107 286 151.441 287.25 160.607 287.25C175.941 287.25 187.441 284.333 195.107 278.5C202.774 272.5 206.607 264.667 206.607 255C206.607 247.833 204.191 241.417 199.357 235.75C194.524 230.083 187.274 224.75 177.607 219.75C167.941 214.583 155.857 209.167 141.357 203.5C126.857 197.667 113.274 190.583 100.607 182.25C88.1074 173.917 77.9408 163.5 70.1074 151C62.2741 138.5 58.3574 123 58.3574 104.5C58.3574 86 63.5241 70 73.8574 56.5C84.3574 42.8333 98.1074 32.3333 115.107 25C132.274 17.6666 150.607 13.9999 170.107 13.9999Z" fill="#F61643"/>
<path d="M0.00482178 257.202L97.4327 223.452L19.4904 358.452L0.00482178 257.202Z" fill="#F61643"/>
<path d="M307.947 102.202L210.519 135.952L288.462 0.951904L307.947 102.202Z" fill="#F61643"/>
</svg>
