<svg width="300" height="320" viewBox="0 0 300 320" fill="none" xmlns="http://www.w3.org/2000/svg">
<path d="M208.939 5.02792C196.745 1.36324 181.593 3.96177e-06 164.635 3.59182e-06C138.04 3.01159e-06 114.357 8.79787 93.5869 26.3831C72.8273 43.9736 62.4476 66.6206 62.4476 94.3239C62.4476 110.286 67.6375 125.189 78.0172 139.033C88.4076 152.882 103.103 164.425 122.1 173.661C126.643 175.905 133.666 179.208 143.156 183.576C152.656 187.949 159.498 191.194 163.682 193.323C167.861 195.442 172.669 198.307 178.108 201.923C183.557 205.544 187.354 209.161 189.505 212.777C191.665 216.398 192.746 220.327 192.746 224.57C192.746 244.775 177.674 254.877 147.541 254.877C137.161 254.877 119.434 249.529 108.758 245.02C98.0815 240.512 91.3264 237.35 85.3716 233.498C79.4167 229.647 73.6784 225.483 70.1197 219.904L86.8968 191.271L-4.78547e-06 219.348L18.7716 307.538L35.5487 278.905C35.5487 278.905 39.2198 282.659 43.7779 285.9C47.4986 288.547 53.3227 292.118 55.6266 293.429C62.7123 297.426 70.6878 301.481 79.5424 305.598C88.4076 309.705 99.4229 313.128 112.588 315.867C125.764 318.622 139.184 320 152.858 320C168.814 320 183.626 318.189 197.3 314.573C210.968 310.957 223.44 305.405 234.71 297.917C245.979 290.434 254.839 280.081 261.294 266.858C267.761 253.625 270.996 238.153 270.996 220.437C270.996 201.975 263.836 185.444 249.517 170.843C235.207 156.248 217.932 144.711 197.681 136.236C186.03 131.243 177.414 127.501 171.838 125.007C166.272 122.518 159.816 119.215 152.476 115.092C145.131 110.975 139.941 107.108 136.907 103.487C133.867 99.8708 132.352 95.9415 132.352 91.6939C132.352 83.2092 135.577 76.4725 142.033 71.4891C148.483 66.4953 157.666 63.9958 169.571 63.9958C179.188 63.9958 188.433 64.9349 197.681 67.1845C206.93 69.4341 215.144 72.6935 219.201 75.073C225.145 78.5598 228.74 81.211 231.914 84.0406L214.12 114.409L300 88.0674L280.212 1.61252L262.418 31.9807C257.897 27.6736 249.042 21.7462 233.867 14.5819C218.693 7.41751 215.765 7.07941 208.939 5.02792Z" fill="#F61643"/>
</svg>
