<svg width="39" height="39" viewBox="0 0 39 39" fill="#fbfbfb" xmlns="http://www.w3.org/2000/svg">
<path d="M19.5 21.8438C25.3228 21.8438 30.0469 17.1196 30.0469 11.2969C30.0469 5.47412 25.3228 0.75 19.5 0.75C13.6772 0.75 8.95312 5.47412 8.95312 11.2969C8.95312 17.1196 13.6772 21.8438 19.5 21.8438ZM28.875 24.1875H24.8394C23.2134 24.9346 21.4043 25.3594 19.5 25.3594C17.5957 25.3594 15.7939 24.9346 14.1606 24.1875H10.125C4.94678 24.1875 0.75 28.3843 0.75 33.5625V34.7344C0.75 36.6753 2.32471 38.25 4.26562 38.25H34.7344C36.6753 38.25 38.25 36.6753 38.25 34.7344V33.5625C38.25 28.3843 34.0532 24.1875 28.875 24.1875Z"/>
</svg>
